<?xml version="1.0" encoding="UTF-8"?>
<svg width="14px" height="14px" viewBox="0 0 14 14" version="1.1" xmlns="http://www.w3.org/2000/svg" xmlns:xlink="http://www.w3.org/1999/xlink">
    <!-- Generator: sketchtool 49 (51002) - http://www.bohemiancoding.com/sketch -->
    <title>2F424A29-7D51-4DB3-A06E-986F6FE71135</title>
    <desc>Created with sketchtool.</desc>
    <defs></defs>
    <g id="Symbols" stroke="none" stroke-width="1" fill="none" fill-rule="evenodd">
        <g id="Search-bar/" transform="translate(-201.000000, -10.000000)" fill="#646D82" fill-rule="nonzero">
            <g id="Icons/Black/search" transform="translate(196.000000, 5.000000)">
                <path d="M15.2451383,16.2362998 C12.7685254,18.219865 9.14329113,18.0637453 6.84748655,15.7679407 C4.38417115,13.3046253 4.38417115,9.31080194 6.84748655,6.84748655 C9.31080194,4.38417115 13.3046253,4.38417115 15.7679407,6.84748655 C17.9490446,9.02859044 18.1989243,12.4096032 16.5175799,14.8656439 L18.729648,17.0777121 C19.0912182,17.4392822 19.0910342,18.0256873 18.7235543,18.3931671 C18.3586187,18.7581027 17.7647871,18.7559487 17.4080992,18.3992608 L15.2451383,16.2362998 L15.2451383,16.2362998 Z M14.6115855,14.6115855 C16.4362636,12.7869075 16.4362636,9.82851978 14.6115855,8.00384171 C12.7869075,6.17916364 9.82851978,6.17916364 8.00384171,8.00384171 C6.17916364,9.82851978 6.17916364,12.7869075 8.00384171,14.6115855 C9.82851978,16.4362636 12.7869075,16.4362636 14.6115855,14.6115855 Z" id="Oval-Copy-2"></path>
            </g>
        </g>
    </g>
</svg>