<?xml version="1.0" encoding="UTF-8"?>
<svg width="12px" height="12px" viewBox="0 0 12 12" version="1.1" xmlns="http://www.w3.org/2000/svg" xmlns:xlink="http://www.w3.org/1999/xlink">
    <!-- Generator: Sketch 53.2 (72643) - https://sketchapp.com -->
    <title>Badge</title>
    <desc>Created with Sketch.</desc>
    <g id="Symbols" stroke="none" stroke-width="1" fill="none" fill-rule="evenodd">
        <g id="Avatar/1" transform="translate(-25.000000, -29.000000)">
            <g id="Badge" transform="translate(26.000000, 30.000000)">
                <circle id="Oval" stroke="#FFFFFF" fill="#49ABED" cx="5" cy="5" r="5"></circle>
                <path d="M7.7520343,5.35927516 L7.93599105,5.62948252 C7.95444505,5.6549108 7.96920972,5.68261903 7.97988103,5.71184902 C8.0450247,5.89028772 7.94675816,6.08550448 7.7603956,6.14787906 L7.45519471,6.263968 C7.21186075,6.37126019 7.04409286,6.59175311 7.01202631,6.84641396 L6.99112214,7.1606547 C6.99040689,7.191333 6.98538602,7.22177973 6.97619454,7.25117645 C6.91957559,7.43226218 6.72035738,7.53511297 6.53123045,7.48090044 L6.21139663,7.40284064 C5.94532416,7.3482328 5.66888573,7.4318979 5.48393153,7.62300926 L5.27488982,7.86519479 C5.25548302,7.88957407 5.23274367,7.91134653 5.20728176,7.92992819 C5.05026844,8.04451357 4.82597045,8.01553137 4.70629657,7.86519478 L4.49725486,7.62300925 C4.31443534,7.43532346 4.04296542,7.3519644 3.78024187,7.40284056 L3.46040805,7.4768973 C3.42970588,7.48569796 3.39790688,7.49050534 3.36586643,7.49119021 C3.16849489,7.49540944 3.00492201,7.34563109 3.00051587,7.15665183 L2.9796117,6.84241109 C2.94921285,6.58948333 2.7848998,6.3693799 2.54480487,6.25996485 L2.23960398,6.14387592 C2.20907595,6.13365829 2.18013705,6.11952138 2.15357976,6.10185212 C1.99145684,5.99398749 1.95135469,5.7807087 2.06400895,5.62547916 L2.23960399,5.35927522 C2.37027031,5.1353837 2.37027031,4.86261473 2.23960398,4.63872322 L2.06400895,4.37251928 C2.04555495,4.347091 2.03079028,4.31938277 2.02011897,4.29015278 C1.9549753,4.11171407 2.05324184,3.91649732 2.23960438,3.85412274 L2.53853403,3.73603207 C2.78186799,3.62873987 2.94963588,3.40824695 2.98170243,3.15358607 L3.0026066,2.83934533 C3.00332186,2.80866702 3.00834273,2.7782203 3.01753421,2.74882358 C3.07415315,2.56773785 3.27337137,2.46488705 3.46249829,2.51909958 L3.78024168,2.59916092 C4.04735936,2.65402895 4.32486098,2.56952241 4.50979722,2.37699074 L4.71883893,2.13480521 C4.73824574,2.11042593 4.76098509,2.08865347 4.78644699,2.07007181 C4.94346031,1.95548643 5.1677583,1.98446863 5.28743218,2.13480521 L5.49647389,2.37699075 C5.67842797,2.56472737 5.94897602,2.64880298 6.2113965,2.59916096 L6.52286865,2.52110116 C6.55357081,2.51230049 6.58536982,2.50749311 6.61741027,2.50680825 C6.81478181,2.50258901 6.97835471,2.65236736 6.98276083,2.84134658 L7.003665,3.15558732 C7.035732,3.41024842 7.20350051,3.63074153 7.44683341,3.73803352 L7.75203431,3.85412246 C7.78256234,3.86434009 7.81150124,3.878477 7.83805853,3.89614625 C8.00018145,4.00401089 8.04028359,4.21728968 7.92762935,4.3725192 L7.75203431,4.63872314 C7.62136797,4.86261466 7.62136797,5.13538363 7.7520343,5.35927516 Z M5.99997302,4.99320657 C5.99972737,4.94072004 5.96621567,4.89424573 5.91669921,4.8777224 L5.61511135,4.77582442 C5.42689943,4.71392074 5.2780082,4.56746843 5.21224404,4.37955451 L5.11096453,4.07612496 C5.08561224,4.01359537 5.01467743,3.98358257 4.95252715,4.0090899 C4.92226168,4.02151126 4.89824493,4.04567467 4.88589896,4.07612496 L4.78011814,4.3795545 C4.71672279,4.57092889 4.56746358,4.7211007 4.37725077,4.78488205 L4.0756629,4.88678003 C4.01351285,4.91228713 3.98368221,4.98365512 4.00903473,5.04618493 C4.0213807,5.07663521 4.04539744,5.10079862 4.07566291,5.11321999 L4.37725078,5.21511797 C4.56746358,5.27890044 4.71672392,5.42907112 4.78011814,5.62044549 L4.88139764,5.92387504 C4.90674993,5.98640463 4.97768475,6.01641743 5.03983503,5.9909101 C5.07010049,5.97848874 5.09411724,5.95432533 5.10646321,5.92387504 L5.20774272,5.6204455 C5.27113805,5.42907116 5.42039726,5.27889935 5.61061008,5.215118 L5.91219794,5.11322002 C5.9651014,5.09784215 6.00111752,5.04859836 5.99997351,4.99320684 Z" id="Combined-Shape" fill="#FFFFFF" fill-rule="nonzero"></path>
            </g>
        </g>
    </g>
</svg>