<?xml version="1.0" encoding="UTF-8"?>
<svg width="17px" height="17px" viewBox="0 0 17 17" version="1.1" xmlns="http://www.w3.org/2000/svg" xmlns:xlink="http://www.w3.org/1999/xlink">
    <!-- Generator: Sketch 48.2 (47327) - http://www.bohemiancoding.com/sketch -->
    <title>message-smile</title>
    <desc>Created with Sketch.</desc>
    <defs></defs>
    <g id="Icons/Grey/comment" stroke="none" stroke-width="1" fill="none" fill-rule="evenodd" transform="translate(-3.000000, -3.000000)" stroke-linecap="round" stroke-linejoin="round">
        <g id="message-smile" transform="translate(4.000000, 4.000000)" fill="#A6B1C2" fill-rule="nonzero" stroke="#A6B1C2">
            <path d="M7.5,0 C4.84955052,0.00298180889 2.3974829,1.40466647 1.05000714,3.68703375 C-0.297468624,5.96940103 -0.340240007,8.79349843 0.9375,11.115625 L0,15.0000682 L3.790625,14.01875 C6.52601641,15.5750726 9.94210382,15.2581111 12.3444575,13.225083 C14.7468111,11.1920549 15.6243921,7.87543476 14.5419072,4.920315 C13.4594224,1.96519524 10.6471425,0.000201636851 7.5,0 Z M7.5,14.375 C6.2674032,14.3750225 5.05746852,14.0436666 3.996875,13.415625 L3.884375,13.346875 L0.884375,14.115625 L1.6,11.028125 L1.534375,10.915625 C-0.0104317276,8.21711721 0.448279918,4.81767102 2.65307181,2.62512345 C4.8578637,0.432575888 8.25981171,-0.00719737746 10.9496747,1.55261319 C13.6395378,3.11242375 14.9476242,6.28347418 14.1398097,9.28610768 C13.3319953,12.2887412 10.6094006,14.3753961 7.5,14.375 Z" id="Shape"></path>
            <path d="M7.5,10 C5.94669914,10 4.6875,8.74080086 4.6875,7.1875 L4.0625,7.1875 C4.0625,9.08597883 5.60152117,10.625 7.5,10.625 C9.39847883,10.625 10.9375,9.08597883 10.9375,7.1875 L10.3125,7.1875 C10.3125,8.74080086 9.05330086,10 7.5,10 Z" id="Shape"></path>
        </g>
    </g>
</svg>