<?xml version="1.0" encoding="UTF-8"?>
<svg width="22px" height="14px" viewBox="0 0 22 14" version="1.1" xmlns="http://www.w3.org/2000/svg" xmlns:xlink="http://www.w3.org/1999/xlink">
    <!-- Generator: Sketch 48.2 (47327) - http://www.bohemiancoding.com/sketch -->
    <title>view</title>
    <desc>Created with Sketch.</desc>
    <defs></defs>
    <g id="Icons/Grey/eye" stroke="none" stroke-width="1" fill="none" fill-rule="evenodd" transform="translate(-1.000000, -5.000000)" stroke-linecap="round" stroke-linejoin="round">
        <g id="view" transform="translate(2.000000, 6.000000)" fill="#A6B1C2" fill-rule="nonzero" stroke="#A6B1C2">
            <path d="M19.8166667,5.764 C19.6375,5.528 15.4416667,0 10,0 C4.55833333,0 0.3625,5.528 0.183333333,5.764 L0,6 L0.183333333,6.236 C0.3625,6.472 4.55833333,12 10,12 C15.4416667,12 19.6375,6.472 19.8166667,6.236 L20,6 L19.8166667,5.764 Z M10,11 C5.56910191,11 1.88366682,7.00769231 1,6 C1.88366682,4.99230769 5.56910191,1 10,1 C14.4308981,1 18.1163332,4.99230769 19,6 C18.1163332,7.00769231 14.4308981,11 10,11 Z" id="Shape"></path>
            <path d="M10,3 C8.34314575,3 7,4.34314575 7,6 C7,7.65685425 8.34314575,9 10,9 C11.6568542,9 13,7.65685425 13,6 C13,5.20435053 12.6839295,4.44128879 12.1213203,3.87867966 C11.5587112,3.31607052 10.7956495,3 10,3 Z M10,8.25 C8.75735931,8.25 7.75,7.24264069 7.75,6 C7.75,4.75735931 8.75735931,3.75 10,3.75 C11.2426407,3.75 12.25,4.75735931 12.25,6 C12.25,6.5967371 12.0129471,7.16903341 11.5909903,7.59099026 C11.1690334,8.01294711 10.5967371,8.25 10,8.25 Z" id="Shape"></path>
        </g>
    </g>
</svg>