<?xml version="1.0" encoding="utf-8"?>
<!-- Generator: Adobe Illustrator 21.0.0, SVG Export Plug-In . SVG Version: 6.00 Build 0)  -->
<svg version="1.1" id="Layer_1" xmlns="http://www.w3.org/2000/svg" xmlns:xlink="http://www.w3.org/1999/xlink" x="0px" y="0px"
	 viewBox="0 0 9 15" style="enable-background:new 0 0 9 15;" xml:space="preserve">
<style type="text/css">
	.st0{fill:#646D82;}
</style>
<title>Unknown</title>
<desc>Created with Sketch.</desc>
<g id="Screens">
	<g id="Definition-View" transform="translate(-314.000000, -304.000000)">
		<g>
			<path class="st0" d="M320.8,310.4c0-0.2,0-0.4,0-0.5c0-0.6,0-1.2,0-1.8c-0.1-1.1-1-1.9-2.1-1.9c-1-0.1-2.1,0.7-2.3,1.7
				c-0.1,0.2-0.1,0.5-0.1,0.8c0,0.2-0.1,0.2-0.2,0.2c-0.3,0-0.7,0-1,0c-0.1,0-0.2,0-0.2-0.2c-0.1-1.9,1.2-3.6,3.1-3.9
				c2.1-0.3,3.8,1.1,4.1,2.9c0,0.3,0.1,0.5,0.1,0.8c0,1,0,2,0,3c0,0.1,0,0.3,0.1,0.4c1.4,2.5,0,5.7-2.8,6.3
				c-2.5,0.5-4.8-1.1-5.2-3.5c-0.4-2.3,1.2-4.5,3.5-4.9c0.9-0.2,1.9,0,2.7,0.4C320.5,310.2,320.6,310.3,320.8,310.4z M318.5,311.2
				c-1.4,0-2.9,1.1-2.9,2.9c0,1.7,1.4,2.9,2.9,2.9s2.9-1.2,2.9-2.9C321.4,312.3,319.9,311.1,318.5,311.2z"/>
			<path class="st0" d="M318.5,312.8c0.7,0,1.2,0.5,1.2,1.2s-0.5,1.2-1.2,1.2s-1.2-0.5-1.2-1.2S317.8,312.8,318.5,312.8z"/>
		</g>
	</g>
</g>
</svg>
